<svg width="27" height="20" viewBox="0 0 27 20" fill="none" xmlns="http://www.w3.org/2000/svg">
<path d="M14.9803 0.974537C15.3303 0.649588 15.805 0.467041 16.3 0.467041C16.795 0.467041 17.2697 0.649588 17.6197 0.974537L26.0197 8.77454C26.3697 9.09959 26.5663 9.54039 26.5663 10C26.5663 10.4596 26.3697 10.9004 26.0197 11.2255L17.6197 19.0255C17.2677 19.3412 16.7962 19.5159 16.3067 19.512C15.8173 19.508 15.3491 19.3257 15.003 19.0044C14.6569 18.683 14.4606 18.2482 14.4563 17.7938C14.4521 17.3393 14.6402 16.9014 14.9803 16.5745L20.0333 11.7333H2.3C1.80493 11.7333 1.33014 11.5507 0.980068 11.2257C0.63 10.9006 0.433334 10.4597 0.433334 10C0.433334 9.54029 0.63 9.09941 0.980068 8.77435C1.33014 8.44929 1.80493 8.26667 2.3 8.26667H20.0333L14.9803 3.42547C14.6303 3.10042 14.4337 2.65962 14.4337 2.2C14.4337 1.74039 14.6303 1.29959 14.9803 0.974537Z" fill="#F8F8F8"/>
</svg>
