<svg width="42" height="42" viewBox="0 0 42 42" fill="none" xmlns="http://www.w3.org/2000/svg">
<path d="M25.0472 15.6528C24.1785 15.6528 23.5353 15.8709 23.0317 16.1464C22.951 15.8607 22.6858 15.6515 22.3732 15.714H18.5499C18.172 15.6515 17.8658 15.9563 17.9823 16.3517V30.381C17.8658 30.7381 18.172 31.0442 18.5499 31.0187H22.3732C22.7512 31.0442 23.0574 30.7381 23.0574 30.3619L23.0561 21.8831C23.0548 21.8792 23.0407 21.4737 23.2983 21.1944C23.5045 20.9724 23.8594 20.8589 24.3502 20.8589C25.1676 20.8589 25.5315 21.1918 25.6673 21.9366V30.3619C25.5328 30.7381 25.839 31.0442 26.2169 31.0187H30.2465C30.6244 31.0442 30.9307 30.7381 30.7948 30.3619V21.6535C30.9294 17.2253 27.7608 15.6528 25.0472 15.6528ZM29.561 29.7433H26.9011V21.9366C26.9011 20.4304 25.9235 19.4968 24.3514 19.4968C23.4623 19.4968 22.7704 19.757 22.2937 20.2697C21.6313 20.9839 21.6826 21.8894 21.8248 22.091V29.7433H19.2341V17.0149H21.689V17.4434C21.688 17.5711 21.7232 17.6964 21.7906 17.8051C21.8579 17.9137 21.9547 18.0012 22.0698 18.0576C22.1848 18.1139 22.3136 18.1368 22.4411 18.1236C22.5687 18.1104 22.6899 18.0616 22.7909 17.9829L22.9702 17.8452C23.4892 17.4383 24.026 17.0162 25.0484 17.0162C26.1068 17.0162 29.5623 17.3516 29.5623 21.6548L29.561 29.7433ZM14.1373 9.2937C12.6998 9.2937 11.5312 10.4569 11.5312 11.8878C11.5312 13.3188 12.6998 14.482 14.1373 14.482C15.5749 14.482 16.7434 13.3188 16.7434 11.8878C16.7434 10.4569 15.5749 9.2937 14.1373 9.2937ZM14.1373 13.1199C13.4557 13.1199 12.8996 12.5663 12.8996 11.8878C12.8996 11.2093 13.4557 10.6558 14.1373 10.6558C14.8189 10.6558 15.375 11.2093 15.375 11.8878C15.375 12.5663 14.8189 13.1199 14.1373 13.1199ZM15.9669 15.6515H12.1642C11.7862 15.6515 11.48 15.9563 11.5748 16.3517V30.381C11.48 30.7381 11.7862 31.0442 12.1642 31.0187H15.9669C16.3449 31.0442 16.6511 30.7381 16.6511 30.3619V16.3326C16.6511 16.1519 16.579 15.9787 16.4507 15.851C16.3224 15.7233 16.1484 15.6515 15.9669 15.6515ZM15.4186 29.7433H12.8484V17.0149H15.4186V29.7433Z" fill="#D4145A"/>
<path d="M20.5436 0.365967C9.21475 0.365967 0 9.53856 0 20.8156C0 32.0925 9.21475 41.2651 20.5436 41.2651C31.8724 41.2651 41.0871 32.0925 41.0871 20.8156C41.0871 9.53856 31.8724 0.365967 20.5436 0.365967ZM20.5436 39.903C9.97069 39.903 1.36838 31.3401 1.36838 20.8156C1.36838 10.291 9.97069 1.72808 20.5436 1.72808C31.1164 1.72808 39.7188 10.291 39.7188 20.8156C39.7188 31.3401 31.1164 39.903 20.5436 39.903Z" fill="#D4145A"/>
</svg>
