<svg width="80" height="147" viewBox="0 0 80 147" fill="none" xmlns="http://www.w3.org/2000/svg">
<path d="M12.4502 119.527C12.3593 114.497 13.1775 110.451 14.9048 107.391C16.6321 104.33 18.8745 102.103 21.6321 100.709C24.4199 99.3151 27.3593 98.6181 30.4502 98.6181C33.5412 98.6181 36.3593 99.2999 38.9048 100.664C41.4805 101.997 44.4199 104.103 47.723 106.982C49.9654 108.921 51.7533 110.285 53.0866 111.073C54.4502 111.861 55.9351 112.254 57.5411 112.254C60.1472 112.254 62.2078 111.315 63.723 109.436C65.2381 107.527 65.9654 104.77 65.9048 101.164H75.723C75.8139 106.194 74.9957 110.239 73.2684 113.3C71.5715 116.361 69.329 118.588 66.5412 119.982C63.7533 121.376 60.8139 122.073 57.723 122.073C54.6321 122.073 51.8139 121.406 49.2684 120.073C46.723 118.709 43.7836 116.588 40.4502 113.709C38.2381 111.77 36.4502 110.406 35.0866 109.618C33.723 108.83 32.2381 108.436 30.6321 108.436C28.1775 108.436 26.1472 109.3 24.5411 111.027C22.9654 112.724 22.2078 115.558 22.2684 119.527H12.4502Z" fill="url(#paint0_linear_186_3)"/>
<path d="M10.5455 96.3636C10.4545 91.3333 11.2727 87.2879 13 84.2273C14.7273 81.1667 16.9697 78.9394 19.7273 77.5455C22.5152 76.1515 25.4545 75.4545 28.5455 75.4545C31.6364 75.4545 34.4545 76.1364 37 77.5C39.5758 78.8333 42.5152 80.9394 45.8182 83.8182C48.0606 85.7576 49.8485 87.1212 51.1818 87.9091C52.5455 88.697 54.0303 89.0909 55.6364 89.0909C58.2424 89.0909 60.303 88.1515 61.8182 86.2727C63.3333 84.3636 64.0606 81.6061 64 78H73.8182C73.9091 83.0303 73.0909 87.0758 71.3636 90.1364C69.6667 93.197 67.4242 95.4242 64.6364 96.8182C61.8485 98.2121 58.9091 98.9091 55.8182 98.9091C52.7273 98.9091 49.9091 98.2424 47.3636 96.9091C44.8182 95.5455 41.8788 93.4242 38.5455 90.5455C36.3333 88.6061 34.5455 87.2424 33.1818 86.4545C31.8182 85.6667 30.3333 85.2727 28.7273 85.2727C26.2727 85.2727 24.2424 86.1364 22.6364 87.8636C21.0606 89.5606 20.303 92.3939 20.3636 96.3636H10.5455Z" fill="url(#paint1_linear_186_3)"/>
<path d="M12.4502 142.691C12.3593 137.66 13.1775 133.615 14.9048 130.554C16.6321 127.494 18.8745 125.267 21.6321 123.873C24.4199 122.479 27.3593 121.782 30.4502 121.782C33.5412 121.782 36.3593 122.464 38.9048 123.827C41.4805 125.16 44.4199 127.267 47.723 130.145C49.9654 132.085 51.7533 133.448 53.0866 134.236C54.4502 135.024 55.9351 135.418 57.5411 135.418C60.1472 135.418 62.2078 134.479 63.723 132.6C65.2381 130.691 65.9654 127.933 65.9048 124.327H75.723C75.8139 129.357 74.9957 133.403 73.2684 136.464C71.5715 139.524 69.329 141.751 66.5412 143.145C63.7533 144.539 60.8139 145.236 57.723 145.236C54.6321 145.236 51.8139 144.57 49.2684 143.236C46.723 141.873 43.7836 139.751 40.4502 136.873C38.2381 134.933 36.4502 133.57 35.0866 132.782C33.723 131.994 32.2381 131.6 30.6321 131.6C28.1775 131.6 26.1472 132.464 24.5411 134.191C22.9654 135.888 22.2078 138.721 22.2684 142.691H12.4502Z" fill="url(#paint2_linear_186_3)"/>
<defs>
<linearGradient id="paint0_linear_186_3" x1="69.5238" y1="68.1545" x2="-80.6302" y2="68.1545" gradientUnits="userSpaceOnUse">
<stop stop-color="#FCEE21"/>
<stop offset="1" stop-color="#009245" stop-opacity="0"/>
</linearGradient>
<linearGradient id="paint1_linear_186_3" x1="78.0952" y1="50.3364" x2="-95.3221" y2="50.3364" gradientUnits="userSpaceOnUse">
<stop stop-color="#FCEE21"/>
<stop offset="1" stop-color="#009245" stop-opacity="0"/>
</linearGradient>
<linearGradient id="paint2_linear_186_3" x1="80" y1="96.6635" x2="-93.4173" y2="96.6635" gradientUnits="userSpaceOnUse">
<stop stop-color="#FCEE21"/>
<stop offset="1" stop-color="#009245" stop-opacity="0"/>
</linearGradient>
</defs>
</svg>
